<?xml version="1.0" standalone="no"?>
<!DOCTYPE svg PUBLIC "-//W3C//DTD SVG 20010904//EN"
 "http://www.w3.org/TR/2001/REC-SVG-20010904/DTD/svg10.dtd">
<svg version="1.0" xmlns="http://www.w3.org/2000/svg"
 width="412.000000pt" height="412.000000pt" viewBox="0 0 412.000000 412.000000"
 preserveAspectRatio="xMidYMid meet">
<metadata>
Created by potrace 1.11, written by Peter Selinger 2001-2013
</metadata>
<g transform="translate(0.000000,412.000000) scale(0.100000,-0.100000)"
fill="#000000" stroke="none">
<path d="M838 2665 c-1 -2 -52 -5 -112 -6 -61 -2 -122 -5 -138 -7 l-28 -4 0
-624 0 -624 118 -1 c64 0 142 -1 172 -2 l55 -2 5 35 c3 19 5 136 4 260 -1 124
-3 371 -5 550 -3 406 -3 406 -39 419 -16 5 -30 8 -32 6z"/>
<path d="M1340 2659 c-107 -3 -196 -6 -197 -7 -2 -1 -3 -283 -3 -627 l0 -626
175 2 c96 1 177 4 179 8 2 3 6 74 10 156 3 83 9 169 12 193 6 39 9 43 32 40
37 -4 57 -38 112 -198 28 -80 56 -158 62 -173 l11 -28 193 1 c109 1 194 6 194
11 0 5 -32 89 -71 186 -40 98 -78 197 -85 220 l-13 42 58 69 c97 116 106 143
105 307 0 161 -12 197 -91 286 -79 87 -169 127 -303 135 -153 9 -183 9 -380 3z
m351 -330 c38 -10 53 -31 65 -93 6 -33 3 -40 -34 -76 -37 -37 -44 -40 -98 -41
-33 0 -74 -2 -91 -5 l-33 -4 0 119 0 119 78 -5 c42 -3 93 -9 113 -14z"/>
<path d="M2313 2663 c-23 -4 -23 -7 -24 -166 -2 -204 -2 -788 0 -969 l1 -138
174 0 c96 0 177 3 179 8 3 4 8 103 12 221 4 118 8 221 9 229 3 19 -2 18 203
27 93 3 179 8 189 9 18 3 19 13 19 154 0 83 -3 154 -8 158 -4 4 -97 7 -207 7
l-200 -1 0 71 0 72 205 0 c133 1 209 5 216 12 12 12 16 279 5 290 -4 4 -14 8
-24 10 -26 5 -724 11 -749 6z"/>
<path d="M3705 2662 c-11 -2 -34 -22 -51 -45 -44 -60 -287 -405 -362 -514
l-63 -93 113 -1 c62 -1 117 -1 122 0 4 1 17 -1 27 -4 17 -6 16 -11 -17 -78
-20 -40 -63 -121 -97 -182 -33 -60 -71 -130 -84 -155 -14 -25 -41 -74 -61
-110 l-35 -65 29 25 c16 14 52 46 79 70 387 344 675 599 733 649 34 30 60 56
58 59 -5 5 -94 9 -233 12 -51 2 -93 5 -93 7 0 7 204 305 247 362 18 24 32 46
30 47 -2 2 -70 6 -153 9 -82 4 -153 7 -159 9 -5 1 -19 0 -30 -2z"/>
<path d="M0 2025 l0 -626 173 3 172 3 2 623 2 622 -174 0 -175 0 0 -625z"/>
</g>
</svg>
